<svg width="256" height="169" viewBox="0 0 256 169" fill="none" xmlns="http://www.w3.org/2000/svg">
<g filter="url(#filter0_d_94_686)">
<path d="M114.614 112.075L147.049 104.351L139.324 71.9159L106.889 79.6406L114.614 112.075Z" fill="#F9E050"/>
<path d="M47.7484 43.2512L80.1832 35.5266L74.5338 11.8056L42.099 19.5303L47.7484 43.2512Z" fill="#F4F464"/>
<path d="M77.3187 61.4455L109.753 53.7208L102.029 21.286L69.594 29.0107L77.3187 61.4455ZM5.68781 78.5051L29.5701 72.8173L23.8823 48.9349L-1.04899e-05 54.6228L5.68781 78.5051ZM59.1165 90.9833L82.9988 85.2955L77.311 61.4132L53.4287 67.101L59.1165 90.9833Z" fill="#F4F464"/>
<path d="M120.286 135.893L152.721 128.169L144.996 95.7338L112.562 103.458L120.286 135.893Z" fill="#F9B038"/>
<path d="M115.408 153.288L156.363 143.534L150.675 119.652L109.72 129.406L115.408 153.288Z" fill="#F6842D"/>
<path d="M52.314 168.315L76.1964 162.627L70.5086 138.745L46.6262 144.433L52.314 168.315Z" fill="#F9E050"/>
<path d="M97.5504 40.4282L129.985 32.7035L122.299 0.430109L89.8641 8.15479L97.5504 40.4282Z" fill="#F6842D"/>
<path d="M70.4881 138.732L94.3705 133.045L88.6826 109.162L64.8003 114.85L70.4881 138.732Z" fill="#F4F464"/>
<path d="M126.975 58.6574L159.41 50.9328L151.685 18.498L119.25 26.2227L126.975 58.6574Z" fill="#F4AC2B"/>
<path d="M132.651 82.491L165.086 74.7663L157.361 42.3315L124.926 50.0562L132.651 82.491Z" fill="#F6842D"/>
<path d="M138.35 106.422L170.785 98.6969L163.061 66.2621L130.626 73.9868L138.35 106.422Z" fill="#F4AC2B"/>
<path d="M144.023 130.24L176.458 122.516L168.733 90.081L136.298 97.8057L144.023 130.24Z" fill="#F6842D"/>
<path d="M113.762 2.46355L119.411 26.1845L143.132 20.5351L165.876 116.032L141.994 121.72L147.681 145.602L211.696 130.357C221.313 128.066 229.378 124.986 235.855 121.107C242.34 117.261 247.17 112.052 250.381 105.49C253.593 98.927 255.214 90.6971 255.18 80.8151C255.153 70.9654 253.409 58.8474 249.974 44.4212C246.507 29.8659 242.677 18.296 238.476 9.74747C234.22 1.04146 229.29 -5.33848 223.69 -9.37621C218.085 -13.6095 211.274 -15.9423 204.251 -16.035C196.931 -16.338 188.39 -15.327 178.66 -13.0096L137.463 -3.19814L113.762 2.46355ZM167.044 10.458L182.486 6.78018C187.812 5.51195 192.573 5.02601 196.705 5.33774C200.987 5.51146 205.026 7.36839 207.945 10.5047C211.314 13.6243 214.331 18.4137 217.031 24.8814C219.876 31.3145 222.614 40.0921 225.266 51.2264C227.91 62.3284 229.405 71.4703 229.812 78.6205C230.334 85.607 229.815 91.3064 228.261 95.735C226.825 99.8247 224.049 103.31 220.385 105.625C216.808 107.79 212.436 109.479 207.224 110.721L191.797 114.395L167.044 10.458Z" fill="#F14D34"/>
<path d="M101.201 55.7583L125.084 50.0705L119.396 26.1882L95.5134 31.876L101.201 55.7583Z" fill="#F9E050"/>
<path d="M100.062 156.943L123.945 151.255L118.257 127.373L94.3744 133.061L100.062 156.943Z" fill="#F9B038"/>
<path d="M71.631 37.5633L95.5133 31.8754L89.8639 8.15446L65.9816 13.8423L71.631 37.5633Z" fill="#F9E050"/>
</g>
<defs>
<filter id="filter0_d_94_686" x="-17.07" y="-16.0874" width="289.32" height="245.57" filterUnits="userSpaceOnUse" color-interpolation-filters="sRGB">
<feFlood flood-opacity="0" result="BackgroundImageFix"/>
<feColorMatrix in="SourceAlpha" type="matrix" values="0 0 0 0 0 0 0 0 0 0 0 0 0 0 0 0 0 0 127 0" result="hardAlpha"/>
<feOffset dy="44.0975"/>
<feGaussianBlur stdDeviation="8.535"/>
<feColorMatrix type="matrix" values="0 0 0 0 0 0 0 0 0 0.0495833 0 0 0 0 0.145833 0 0 0 0.25 0"/>
<feBlend mode="normal" in2="BackgroundImageFix" result="effect1_dropShadow_94_686"/>
<feBlend mode="normal" in="SourceGraphic" in2="effect1_dropShadow_94_686" result="shape"/>
</filter>
</defs>
</svg>
